<svg width="90" height="86" viewBox="0 0 90 86" fill="none" xmlns="http://www.w3.org/2000/svg">
<path fill-rule="evenodd" clip-rule="evenodd" d="M26.6314 0.707739L89.9997 0.0258789L82.7882 11.6462L54.3703 11.2443L78.5782 19.9003L73.0168 28.9654L10.5381 28.2477L17.1723 17.7183L50.5473 18.8596L20.4182 10.6342" fill="#F5F5F5"/>
<path fill-rule="evenodd" clip-rule="evenodd" d="M48.9367 31.804L7.5559 85.0518C7.65783 85.0518 7.97039 67.0965 7.97039 65.135L24.8421 43.3L0 43.3646L9.03039 31.7825L48.9367 31.804Z" fill="#F5F5F5"/>
<path d="M63.3404 43.3934L56.2919 53.0715L73.5261 53.1577L68.7932 59.0925L53.7116 59.1141L42.4055 73.6133L86.2039 73.5846L77.4985 85.0518H13.5664L54.8659 31.7968L89.9997 31.7825L81.0431 43.3934H63.3404Z" fill="#F5F5F5"/>
</svg>
